<svg width="21" height="19" viewBox="0 0 21 19" fill="none" xmlns="http://www.w3.org/2000/svg">
<path d="M3.99996 19.0007C2.99996 19.0007 2.20396 18.613 1.61196 17.8377C1.02062 17.063 0.849956 16.2007 1.09996 15.2507L2.89996 8.45069C2.34996 8.10069 1.89596 7.62569 1.53796 7.02569C1.17929 6.42569 0.999956 5.75069 0.999956 5.00069C0.999956 3.90069 1.39162 2.95903 2.17496 2.17569C2.95829 1.39236 3.89996 1.00069 4.99996 1.00069H13C13.75 1.00069 14.3166 1.31736 14.7 1.95069C15.0833 2.58403 15.1083 3.23403 14.775 3.90069L12.775 7.90069C12.5916 8.23403 12.346 8.50069 12.038 8.70069C11.7293 8.90069 11.3833 9.00069 11 9.00069H8.97496L8.69996 10.0007H8.99996C9.28329 10.0007 9.52096 10.0964 9.71296 10.2877C9.90429 10.4797 9.99996 10.7174 9.99996 11.0007V13.0007C9.99996 13.284 9.90429 13.5214 9.71296 13.7127C9.52096 13.9047 9.28329 14.0007 8.99996 14.0007H7.64996L6.89996 16.8007C6.71662 17.4507 6.35829 17.9797 5.82496 18.3877C5.29162 18.7964 4.68329 19.0007 3.99996 19.0007ZM3.99996 17.0007C4.23329 17.0007 4.43329 16.934 4.59996 16.8007C4.76662 16.6674 4.88329 16.4924 4.94996 16.2757L6.89996 9.00069H4.82496L3.02496 15.7507C2.94162 16.0674 2.99996 16.355 3.19996 16.6137C3.39996 16.8717 3.66662 17.0007 3.99996 17.0007ZM4.99996 7.00069H11L13 3.00069H4.99996C4.44996 3.00069 3.97929 3.19669 3.58796 3.58869C3.19596 3.98003 2.99996 4.45069 2.99996 5.00069C2.99996 5.55069 3.19596 6.02136 3.58796 6.41269C3.97929 6.80469 4.44996 7.00069 4.99996 7.00069ZM19.925 1.67569L17.675 2.70069C17.4916 2.78403 17.3043 2.78803 17.113 2.71269C16.921 2.63803 16.7833 2.50903 16.7 2.32569C16.6166 2.14236 16.6083 1.95469 16.675 1.76269C16.7416 1.57136 16.8666 1.43403 17.05 1.35069L19.3 0.325694C19.4833 0.242361 19.675 0.238027 19.875 0.312694C20.075 0.388027 20.2166 0.517361 20.3 0.700694C20.3833 0.884027 20.3873 1.07136 20.312 1.26269C20.2373 1.45469 20.1083 1.59236 19.925 1.67569ZM17.075 8.67569C16.8916 8.59236 16.7583 8.45069 16.675 8.25069C16.5916 8.05069 16.5916 7.85903 16.675 7.67569C16.7583 7.47569 16.9 7.34236 17.1 7.27569C17.3 7.20903 17.5 7.21736 17.7 7.30069L19.95 8.35069C20.1333 8.43403 20.2583 8.57136 20.325 8.76269C20.3916 8.95469 20.3833 9.14236 20.3 9.32569C20.2166 9.50903 20.0793 9.63803 19.888 9.71269C19.696 9.78803 19.5083 9.78403 19.325 9.70069L17.075 8.67569ZM20.25 5.75069H17.75C17.5333 5.75069 17.354 5.67969 17.212 5.53769C17.0706 5.39636 17 5.21736 17 5.00069C17 4.78403 17.0706 4.60503 17.212 4.46369C17.354 4.32169 17.5333 4.25069 17.75 4.25069H20.25C20.4666 4.25069 20.646 4.32169 20.788 4.46369C20.9293 4.60503 21 4.78403 21 5.00069C21 5.21736 20.9293 5.39636 20.788 5.53769C20.646 5.67969 20.4666 5.75069 20.25 5.75069Z" fill="#284D19"/>
</svg>
