<svg width="165" height="102" viewBox="0 0 165 102" fill="none" xmlns="http://www.w3.org/2000/svg">
<g clip-path="url(#clip0_1151_178173)">
<path d="M147.219 37.6521C143.765 29.4109 137.684 21.4275 140.773 16.9824L123.344 28.3441L130.243 42.5417C130.243 42.5417 136.755 56.0637 141.298 61.3934C145.836 66.7231 129.061 75.0132 139.52 79.9473C139.636 80.0006 139.76 80.0362 139.88 80.0717V80.0806L139.96 80.0984C140.018 80.1162 140.08 80.1295 140.142 80.1428L148.699 82.192L151.264 79.1071L155.918 65.5407C156.185 64.9673 156.354 64.4916 156.394 64.1538C156.789 60.9934 150.668 45.8933 147.214 37.6521H147.219Z" fill="#53525D"/>
<path d="M118.792 28.2275V38.6868L154.522 15.3945V7.5L118.792 28.2275Z" fill="#53525D"/>
<path d="M97.8383 18.7002L88.0947 17.3711L86.2233 19.9359V27.3681L90.5661 24.0343L97.8383 18.7002Z" fill="#53525D"/>
<path d="M117.61 25.5288L103.528 19.4746L97.8383 18.7012L90.5661 24.0353L86.2233 27.3691L118.793 38.6863V28.227L117.61 25.5288Z" fill="#3D3B40"/>
<path d="M90.566 18.3105V24.0358L118.792 33.775V25.4183L101.225 18.3105H90.566Z" fill="#E84C3D"/>
<path d="M86.2232 19.9378C97.4737 16.9774 116.819 26.6499 118.792 28.228L154.522 7.50045C150.971 2.36636 133.399 -0.394045 126.687 1.37955C119.975 3.15759 86.6144 14.4081 86.2188 19.9334L86.2232 19.9378Z" fill="#6D6D71"/>
<path d="M124.66 34.8647L130.341 45.204L135.475 46.782L128.332 32.4688L124.66 34.8647Z" fill="#E84C3D"/>
<path d="M131.634 30.3184L138.533 44.5116L135.475 46.783L128.332 32.4698L131.634 30.3184Z" fill="#CE3229"/>
<path d="M138.533 44.5105C138.533 44.5105 145.045 58.0325 149.588 63.3622C154.127 68.6918 137.351 76.9819 147.81 81.916C153.238 84.383 164.293 69.283 164.688 66.1226C165.084 62.9621 158.963 47.8621 155.509 39.6209C152.055 31.3797 145.974 23.3963 149.064 18.9512L131.634 30.3128L138.533 44.506V44.5105Z" fill="#6D6D71"/>
<path d="M90.5305 19.3848L30.6772 29.6974L113.347 70.4278L118.792 38.6943V28.2305L114.801 25.9413C107.409 21.7051 99.0473 19.447 90.5305 19.3848Z" fill="url(#paint0_linear_1151_178173)"/>
<path d="M102.505 52.84L99.764 50.5589L18.7873 23.7773L17.3407 24.2737L17.6277 57.0663L18.7756 58.836L97.2748 97.9455L99.4067 97.5244L102.505 52.84Z" fill="#F1F2F2"/>
<path d="M92.0037 92.4231L94.8794 93.8268L97.9074 53.2585L94.8794 52.2207L92.0037 92.4231Z" fill="#58595B"/>
<path d="M87.1718 90.0673L89.9479 91.4209L92.7123 51.4792L89.7839 50.4766L87.1718 90.0673Z" fill="#58595B"/>
<path d="M79.3998 81.9012L84.4718 84.2926L86.6623 49.4094L81.3618 47.5996L79.3998 81.9012Z" fill="#58595B"/>
<path d="M76.5885 80.5726L77.9883 81.2343L79.8859 47.0931L78.4275 46.5918L76.5885 80.5726Z" fill="#58595B"/>
<path d="M68.9219 76.9569L70.2397 77.5786L71.8093 44.3248L70.4329 43.8535L68.9219 76.9569Z" fill="#58595B"/>
<path d="M71.6863 78.2611L74.1696 79.4342L75.9091 45.7292L73.3145 44.8418L71.6863 78.2611Z" fill="#58595B"/>
<path d="M65.1443 75.172L67.5046 76.29L68.9629 43.352L66.5031 42.5098L65.1443 75.172Z" fill="#58595B"/>
<path d="M61.1675 73.2987L63.4575 74.3766L64.746 41.9098L62.3681 41.0977L61.1675 73.2987Z" fill="#58595B"/>
<path d="M59.5276 72.5261L61.7883 73.589L63.0124 41.3178L60.6697 40.5156L59.5276 72.5261Z" fill="#58595B"/>
<path d="M55.7206 70.7314L57.911 71.7642L58.9887 39.9392L56.7162 39.1621L55.7206 70.7314Z" fill="#58595B"/>
<path d="M51.1698 68.5848L54.1568 69.9885L55.088 38.6047L51.9956 37.5469L51.1698 68.5848Z" fill="#58595B"/>
<path d="M33.4939 60.2434L34.4778 60.7096L34.7355 31.642L33.7223 31.291L33.4939 60.2434Z" fill="#58595B"/>
<path d="M35.5555 61.2156L37.4004 62.0879L37.7519 32.6693L35.8484 32.0176L35.5555 61.2156Z" fill="#58595B"/>
<path d="M30.6768 58.9133L32.4397 59.7455L32.6329 30.9185L30.8115 30.2969L30.6768 58.9133Z" fill="#58595B"/>
<path d="M27.6897 57.5066L29.4058 58.3188L29.5112 29.8527L27.7424 29.2461L27.6897 57.5066Z" fill="#58595B"/>
<path d="M26.4598 56.9237L28.1583 57.7258L28.2169 29.4102L26.4716 28.8086L26.4598 56.9237Z" fill="#58595B"/>
<path d="M23.5841 55.57L25.2416 56.347L25.2181 28.3823L23.5138 27.8008L23.5841 55.57Z" fill="#58595B"/>
<path d="M20.1579 57.3651L22.4128 58.463L22.2956 27.38L19.9705 26.5879L20.1579 57.3651Z" fill="#58595B"/>
<path d="M47.4272 66.8155L49.4713 67.7831L50.2385 36.9457L48.1184 36.2188L47.4272 66.8155Z" fill="#58595B"/>
<path d="M44.9674 65.6567L45.9631 66.1279L46.6015 35.7017L45.5707 35.3457L44.9674 65.6567Z" fill="#58595B"/>
<path d="M40.1941 63.4057L43.5325 64.9799L44.0889 34.8394L40.6392 33.6562L40.1941 63.4057Z" fill="#58595B"/>
<path d="M38.3082 62.5122L40.1941 63.4045L40.6392 33.6551L38.6889 32.9883L38.3082 62.5122Z" fill="#58595B"/>
<path d="M17.0303 56.7591L16.7257 24.4779C16.714 23.395 17.6686 22.8285 18.8576 23.2195L99.8401 49.7755C102.165 50.5375 103.981 52.3824 103.858 53.8764L100.303 97.7637C100.191 99.1173 98.3056 99.3178 96.1327 98.2299L19.1211 59.6318C17.9732 59.0553 17.0361 57.7718 17.0303 56.7591ZM18.8693 24.4829C18.4359 24.3375 18.0845 24.5431 18.0903 24.9391L18.348 57.4109C18.348 57.7818 18.6936 58.2531 19.1153 58.4587L96.2498 96.6858C97.0405 97.0768 97.714 96.9966 97.755 96.5103L101.158 52.964C101.199 52.4275 100.549 51.7608 99.7112 51.48L18.8693 24.4829Z" fill="#58595B"/>
<path d="M84.9753 87.9628C84.905 88.1633 84.8055 88.3137 84.6766 88.404C84.5478 88.4942 84.3896 88.5293 84.2022 88.5093C84.0148 88.4892 83.7981 88.419 83.5462 88.2987C83.3178 88.1884 83.1128 88.053 82.943 87.8976C82.7731 87.7422 82.6267 87.5617 82.5154 87.3612C82.4042 87.1557 82.3222 86.925 82.2753 86.6693C82.2285 86.4137 82.2167 86.1179 82.2343 85.797C82.2519 85.4762 82.2987 85.2155 82.369 85.0099C82.4393 84.8044 82.5389 84.659 82.6619 84.5687C82.7907 84.4785 82.943 84.4434 83.1304 84.4584C83.3178 84.4735 83.5345 84.5437 83.7805 84.659C84.0148 84.7693 84.2139 84.8996 84.3955 85.055C84.5712 85.2105 84.7176 85.3909 84.8348 85.5965C84.9519 85.802 85.0339 86.0377 85.0807 86.2984C85.1276 86.5591 85.1393 86.8548 85.1217 87.1807C85.1042 87.5016 85.0573 87.7623 84.9812 87.9678L84.9753 87.9628ZM84.3955 85.6516C84.2725 85.3508 84.0617 85.1252 83.763 84.9848C83.4467 84.8344 83.2124 84.8595 83.066 85.055C82.9196 85.2556 82.8317 85.5915 82.8024 86.0677C82.7731 86.5891 82.8141 87.0002 82.9371 87.301C83.0601 87.6018 83.2651 87.8224 83.558 87.9678C83.8625 88.1182 84.0968 88.0982 84.2491 87.9026C84.4013 87.7121 84.4951 87.3762 84.5243 86.895C84.5595 86.3685 84.5126 85.9524 84.3896 85.6466L84.3955 85.6516Z" fill="#58595B"/>
<path d="M79.9326 85.5204C79.8623 85.721 79.7686 85.8663 79.6456 85.9566C79.5227 86.0468 79.3704 86.0819 79.1888 86.0669C79.0073 86.0518 78.7964 85.9817 78.5563 85.8663C78.3337 85.756 78.1404 85.6307 77.9764 85.4803C77.8125 85.3299 77.6719 85.1544 77.5606 84.9539C77.4493 84.7534 77.3732 84.5278 77.3263 84.2721C77.2795 84.0164 77.2678 83.7306 77.2853 83.4148C77.3029 83.0989 77.3439 82.8383 77.4083 82.6377C77.4728 82.4372 77.5665 82.2918 77.6895 82.2016C77.8125 82.1113 77.9589 82.0762 78.1404 82.0913C78.322 82.1063 78.527 82.1715 78.7671 82.2818C78.9897 82.387 79.1888 82.5174 79.3587 82.6678C79.5285 82.8182 79.6691 82.9937 79.7804 83.1992C79.8916 83.3998 79.9736 83.6304 80.0205 83.8911C80.0673 84.1467 80.079 84.4375 80.0615 84.7584C80.0439 85.0742 80.0029 85.3299 79.9326 85.5304V85.5204ZM79.3645 83.2494C79.2415 82.9536 79.0424 82.738 78.7554 82.6026C78.4509 82.4572 78.2283 82.4823 78.0877 82.6778C77.9472 82.8733 77.8652 83.2042 77.8417 83.6755C77.8125 84.1919 77.8593 84.5929 77.9764 84.8887C78.0936 85.1845 78.2927 85.4001 78.5797 85.5405C78.8725 85.6859 79.0951 85.6608 79.2474 85.4703C79.3938 85.2798 79.4817 84.9489 79.5109 84.4726C79.5402 83.9512 79.4934 83.5451 79.3762 83.2494H79.3645Z" fill="#58595B"/>
<path d="M76.606 83.9063C76.5416 84.1069 76.4479 84.2472 76.3307 84.3375C76.2136 84.4277 76.0613 84.4628 75.8856 84.4478C75.7099 84.4327 75.5049 84.3676 75.2707 84.2523C75.054 84.147 74.8665 84.0216 74.7025 83.8712C74.5385 83.7259 74.4038 83.5504 74.2984 83.3549C74.193 83.1593 74.1169 82.9337 74.07 82.6831C74.0231 82.4324 74.0114 82.1516 74.0231 81.8358C74.0407 81.525 74.0817 81.2693 74.1461 81.0688C74.2106 80.8682 74.2984 80.7228 74.4214 80.6326C74.5386 80.5423 74.685 80.5073 74.8607 80.5173C75.0364 80.5323 75.2414 80.5925 75.4698 80.7028C75.6865 80.8081 75.8798 80.9334 76.0438 81.0788C76.2077 81.2292 76.3483 81.3996 76.4596 81.6002C76.5709 81.8007 76.647 82.0263 76.6939 82.282C76.7407 82.5377 76.7524 82.8234 76.7349 83.1393C76.7173 83.4501 76.6763 83.7058 76.6119 83.9063H76.606ZM76.0496 81.6654C75.9325 81.3746 75.7333 81.159 75.4522 81.0286C75.1535 80.8883 74.9368 80.9133 74.8021 81.1089C74.6674 81.3044 74.5854 81.6353 74.562 82.0965C74.5327 82.6029 74.5795 83.0039 74.6967 83.2947C74.8138 83.5855 75.0071 83.8011 75.2824 83.9364C75.5693 84.0768 75.786 84.0517 75.9325 83.8662C76.0789 83.6757 76.1609 83.3498 76.1843 82.8786C76.2136 82.3622 76.1668 81.9611 76.0496 81.6654Z" fill="#58595B"/>
<path d="M71.8559 81.6099C71.7915 81.8054 71.7037 81.9508 71.5924 82.036C71.4752 82.1263 71.3347 82.1614 71.1648 82.1514C70.995 82.1363 70.7958 82.0762 70.5674 81.9659C70.3566 81.8656 70.175 81.7403 70.0169 81.5999C69.8587 81.4545 69.7299 81.2891 69.6245 81.0935C69.5191 80.898 69.4429 80.6824 69.4019 80.4368C69.3551 80.1911 69.3433 79.9104 69.3551 79.5995C69.3668 79.2937 69.4078 79.038 69.4663 78.8425C69.5249 78.647 69.6128 78.5016 69.7299 78.4114C69.8412 78.3211 69.9817 78.281 70.1516 78.2961C70.3214 78.3061 70.5147 78.3662 70.7373 78.4715C70.9481 78.5718 71.1355 78.6921 71.2937 78.8375C71.4518 78.9829 71.5865 79.1533 71.6919 79.3439C71.7974 79.5394 71.8735 79.76 71.9204 80.0106C71.9672 80.2613 71.9789 80.5421 71.9672 80.8529C71.9496 81.1587 71.9145 81.4094 71.8501 81.6099H71.8559ZM71.3112 79.409C71.1941 79.1233 71.0067 78.9177 70.7314 78.7874C70.4444 78.652 70.2336 78.6771 70.1047 78.8726C69.9759 79.0681 69.8997 79.389 69.8763 79.8452C69.8529 80.3465 69.8939 80.7376 70.011 81.0233C70.1223 81.3091 70.3097 81.5147 70.5791 81.645C70.8544 81.7804 71.0653 81.7553 71.2 81.5698C71.3405 81.3843 71.4167 81.0584 71.4401 80.5972C71.4635 80.0909 71.4225 79.6948 71.3054 79.404L71.3112 79.409Z" fill="#58595B"/>
<path d="M67.2701 79.3889C67.2116 79.5844 67.1237 79.7248 67.0183 79.815C66.907 79.9052 66.7723 79.9403 66.6083 79.9303C66.4443 79.9203 66.2569 79.8601 66.0344 79.7498C65.8352 79.6496 65.6537 79.5342 65.5072 79.3939C65.355 79.2535 65.232 79.0881 65.1265 78.9026C65.027 78.712 64.9508 78.4965 64.9098 78.2558C64.863 78.0152 64.8513 77.7394 64.863 77.4336C64.8747 77.1328 64.9098 76.8822 64.9684 76.6866C65.027 76.4911 65.109 76.3507 65.2203 76.2605C65.3315 76.1703 65.4662 76.1301 65.6244 76.1402C65.7884 76.1502 65.9758 76.2054 66.1925 76.3106C66.3975 76.4059 66.5732 76.5262 66.7313 76.6666C66.8895 76.807 67.0183 76.9724 67.1179 77.1629C67.2233 77.3534 67.2936 77.574 67.3404 77.8197C67.3873 78.0653 67.399 78.3411 67.3873 78.6469C67.3756 78.9477 67.3404 79.1983 67.276 79.3889H67.2701ZM66.7372 77.2281C66.6259 76.9473 66.4385 76.7468 66.1808 76.6215C65.9055 76.4911 65.7005 76.5212 65.5775 76.7117C65.4545 76.9022 65.3843 77.2231 65.3608 77.6743C65.3374 78.1656 65.3842 78.5516 65.4955 78.8324C65.6068 79.1131 65.7884 79.3137 66.0461 79.439C66.3155 79.5693 66.5146 79.5443 66.6493 79.3588C66.784 79.1733 66.8543 78.8524 66.8777 78.4012C66.9012 77.8999 66.8543 77.5088 66.743 77.2281H66.7372Z" fill="#58595B"/>
<path d="M64.248 77.9258C64.1894 78.1163 64.1074 78.2566 64.002 78.3469C63.8965 78.4371 63.7618 78.4772 63.6037 78.4622C63.4456 78.4522 63.2582 78.392 63.0415 78.2917C62.8423 78.1965 62.6725 78.0762 62.526 77.9408C62.3796 77.8054 62.2566 77.64 62.1571 77.4545C62.0575 77.269 61.9872 77.0534 61.9404 76.8178C61.8935 76.5772 61.8818 76.3064 61.8935 76.0056C61.9052 75.7048 61.9404 75.4592 61.9931 75.2637C62.0516 75.0681 62.1278 74.9278 62.2332 74.8425C62.3386 74.7523 62.4733 74.7122 62.6315 74.7222C62.7896 74.7322 62.977 74.7874 63.1879 74.8876C63.387 74.9829 63.5627 75.0982 63.715 75.2336C63.8673 75.3739 63.9961 75.5344 64.0957 75.7249C64.1952 75.9154 64.2714 76.131 64.3124 76.3716C64.3592 76.6173 64.371 76.888 64.3592 77.1888C64.3475 77.4896 64.3124 77.7353 64.2538 77.9258H64.248ZM63.7208 75.7901C63.6096 75.5143 63.428 75.3138 63.1762 75.1935C62.9067 75.0631 62.7076 75.0932 62.5905 75.2837C62.4675 75.4742 62.4031 75.7901 62.3855 76.2362C62.3679 76.7225 62.4089 77.1086 62.5143 77.3843C62.6198 77.6601 62.8013 77.8606 63.0532 77.9809C63.3167 78.1062 63.51 78.0812 63.6389 77.8957C63.7677 77.7102 63.838 77.3943 63.8556 76.9431C63.8731 76.4468 63.8321 76.0608 63.7208 75.785V75.7901Z" fill="#58595B"/>
<path d="M61.2961 76.497C61.2434 76.6875 61.1614 76.8279 61.056 76.9131C60.9506 77.0033 60.8217 77.0434 60.6695 77.0334C60.5172 77.0234 60.3298 76.9682 60.1248 76.868C59.9315 76.7727 59.7617 76.6574 59.6211 76.5221C59.4747 76.3867 59.3575 76.2263 59.258 76.0458C59.1584 75.8603 59.0881 75.6497 59.0471 75.4141C59.0061 75.1785 58.9886 74.9077 59.0003 74.6069C59.012 74.3111 59.0413 74.0655 59.0998 73.875C59.1525 73.6845 59.2345 73.5441 59.3341 73.4539C59.4395 73.3636 59.5684 73.3235 59.7207 73.3335C59.8729 73.3436 60.0545 73.3937 60.2595 73.494C60.4528 73.5842 60.6226 73.6995 60.7749 73.8349C60.9213 73.9702 61.0502 74.1307 61.1439 74.3162C61.2434 74.5017 61.3137 74.7122 61.3606 74.9529C61.4016 75.1935 61.4191 75.4642 61.4074 75.765C61.3957 76.0608 61.3606 76.3065 61.3079 76.497H61.2961ZM60.7749 74.3863C60.6695 74.1106 60.4879 73.9151 60.2419 73.7998C59.9784 73.6744 59.7851 73.7045 59.6679 73.895C59.5508 74.0855 59.4864 74.4014 59.4688 74.8376C59.4512 75.3188 59.4981 75.6999 59.5977 75.9706C59.7031 76.2413 59.8788 76.4418 60.1248 76.5622C60.3825 76.6875 60.5699 76.6574 60.6929 76.4769C60.8159 76.2914 60.8862 75.9806 60.9037 75.5344C60.9213 75.0431 60.8744 74.6621 60.769 74.3914L60.7749 74.3863Z" fill="#58595B"/>
<path d="M57.0675 74.4513C57.0148 74.6368 56.9387 74.7772 56.8391 74.8675C56.7395 74.9577 56.6165 74.9978 56.4643 74.9878C56.312 74.9777 56.1363 74.9276 55.9371 74.8273C55.7497 74.7371 55.5857 74.6268 55.4452 74.4914C55.3046 74.3611 55.1875 74.2057 55.0938 74.0252C55.0001 73.8447 54.9298 73.6392 54.8888 73.4035C54.8478 73.1729 54.8302 72.9072 54.8361 72.6114C54.8478 72.3206 54.8771 72.08 54.9298 71.8895C54.9825 71.699 55.0586 71.5636 55.1582 71.4734C55.2577 71.3831 55.3807 71.343 55.5272 71.3531C55.6736 71.3581 55.8493 71.4082 56.0484 71.5035C56.2358 71.5937 56.3998 71.704 56.5463 71.8344C56.6927 71.9647 56.8098 72.1251 56.9094 72.3056C57.0031 72.4861 57.0734 72.6967 57.1202 72.9323C57.1612 73.1679 57.1788 73.4336 57.1729 73.7294C57.1612 74.0202 57.1319 74.2608 57.0792 74.4513H57.0675ZM56.558 72.3758C56.4525 72.1051 56.2827 71.9146 56.0426 71.7993C55.7849 71.6789 55.6033 71.709 55.492 71.8995C55.3807 72.085 55.3163 72.3959 55.3046 72.832C55.287 73.3083 55.3339 73.6793 55.4335 73.95C55.533 74.2157 55.7087 74.4112 55.943 74.5265C56.189 74.6469 56.3764 74.6168 56.4935 74.4363C56.6107 74.2558 56.681 73.945 56.6927 73.5038C56.7102 73.0225 56.6634 72.6465 56.558 72.3758Z" fill="#58595B"/>
<path d="M54.2797 73.0975C54.227 73.283 54.1567 73.4234 54.0571 73.5086C53.9576 73.5988 53.8346 73.639 53.694 73.6289C53.5476 73.6239 53.3777 73.5688 53.1786 73.4735C52.997 73.3833 52.8389 73.273 52.6984 73.1476C52.5636 73.0173 52.4465 72.8619 52.3528 72.6864C52.2591 72.5059 52.1947 72.3054 52.1478 72.0748C52.1068 71.8442 52.0892 71.5835 52.0951 71.2927C52.1009 71.0019 52.1302 70.7663 52.1829 70.5758C52.2357 70.3903 52.3059 70.2499 52.3997 70.1647C52.4934 70.0794 52.6164 70.0343 52.7628 70.0443C52.9092 70.0494 53.079 70.0995 53.2723 70.1897C53.4539 70.275 53.6179 70.3853 53.7584 70.5156C53.899 70.646 54.0161 70.8014 54.1098 70.9818C54.2036 71.1623 54.2738 71.3679 54.3148 71.6035C54.3558 71.8391 54.3734 72.0998 54.3675 72.3906C54.3617 72.6814 54.3265 72.917 54.2797 73.1025V73.0975ZM53.776 71.047C53.6706 70.7813 53.5007 70.5908 53.2665 70.4805C53.0146 70.3602 52.8389 70.3953 52.7276 70.5808C52.6164 70.7663 52.5578 71.0771 52.5461 71.5032C52.5344 71.9745 52.5754 72.3405 52.6749 72.6062C52.7745 72.8719 52.9443 73.0574 53.1786 73.1727C53.4187 73.293 53.6003 73.2579 53.7174 73.0774C53.8346 72.897 53.899 72.5912 53.9107 72.155C53.9224 71.6787 53.8814 71.3077 53.776 71.042V71.047Z" fill="#58595B"/>
<path d="M50.2852 71.1627C50.2384 71.3482 50.1622 71.4836 50.0685 71.5688C49.9748 71.654 49.8577 71.6991 49.7171 71.6941C49.5765 71.6891 49.4067 71.639 49.2193 71.5437C49.0436 71.4585 48.8913 71.3532 48.7566 71.2229C48.6219 71.0975 48.5106 70.9471 48.4227 70.7717C48.3349 70.5962 48.2646 70.3957 48.2236 70.1701C48.1826 69.9445 48.165 69.6888 48.1709 69.398C48.1768 69.1122 48.206 68.8766 48.2529 68.6911C48.2997 68.5056 48.37 68.3703 48.4637 68.28C48.5574 68.1948 48.6746 68.1497 48.8151 68.1547C48.9557 68.1547 49.1197 68.2048 49.3071 68.2951C49.4828 68.3803 49.641 68.4856 49.7757 68.6109C49.9104 68.7362 50.0275 68.8916 50.1154 69.0671C50.2091 69.2426 50.2735 69.4481 50.3145 69.6787C50.3555 69.9094 50.3731 70.1701 50.3672 70.4558C50.3614 70.7416 50.3321 70.9772 50.2852 71.1577V71.1627ZM49.7932 69.1473C49.6937 68.8866 49.5297 68.7011 49.3013 68.5959C49.0611 68.4805 48.8854 68.5156 48.78 68.7011C48.6746 68.8866 48.616 69.1874 48.6102 69.6136C48.5984 70.0798 48.6453 70.4408 48.739 70.7015C48.8386 70.9622 48.9967 71.1477 49.2251 71.258C49.4594 71.3733 49.6351 71.3382 49.7464 71.1627C49.8577 70.9822 49.9221 70.6814 49.9279 70.2503C49.9397 69.779 49.8928 69.413 49.7932 69.1523V69.1473Z" fill="#58595B"/>
<path d="M47.6439 69.8843C47.597 70.0648 47.5267 70.2002 47.433 70.2904C47.3393 70.3756 47.228 70.4208 47.0875 70.4157C46.9469 70.4157 46.7888 70.3606 46.6014 70.2703C46.4315 70.1851 46.2792 70.0798 46.1445 69.9595C46.0157 69.8342 45.9044 69.6888 45.8165 69.5133C45.7287 69.3429 45.6643 69.1423 45.6233 68.9167C45.5823 68.6911 45.5647 68.4405 45.5706 68.1497C45.5706 67.8689 45.5998 67.6333 45.6467 67.4478C45.6936 67.2623 45.7638 67.127 45.8517 67.0417C45.9395 66.9565 46.0567 66.9114 46.1914 66.9164C46.3261 66.9164 46.4901 66.9665 46.6716 67.0518C46.8473 67.132 46.9996 67.2372 47.1343 67.3626C47.269 67.4879 47.3803 67.6383 47.4682 67.8088C47.556 67.9842 47.6263 68.1848 47.6673 68.4104C47.7083 68.636 47.7259 68.8967 47.72 69.1824C47.7142 69.4632 47.6849 69.6988 47.638 69.8793L47.6439 69.8843ZM47.1578 67.889C47.0582 67.6333 46.9001 67.4478 46.6775 67.3425C46.4432 67.2272 46.2734 67.2673 46.168 67.4478C46.0684 67.6333 46.0098 67.9341 46.004 68.3502C45.9923 68.8115 46.0391 69.1674 46.1328 69.4281C46.2265 69.6838 46.3905 69.8693 46.6072 69.9746C46.8356 70.0849 47.0055 70.0548 47.1168 69.8743C47.228 69.6988 47.2866 69.398 47.2925 68.9719C47.3042 68.5056 47.2573 68.1447 47.1578 67.884V67.889Z" fill="#58595B"/>
<path d="M45.061 68.6361C45.0142 68.8166 44.9497 68.9519 44.856 69.0371C44.7682 69.1224 44.6569 69.1675 44.5222 69.1625C44.3875 69.1625 44.2293 69.1123 44.0419 69.0221C43.8721 68.9419 43.7257 68.8366 43.5968 68.7163C43.4679 68.596 43.3625 68.4456 43.2747 68.2751C43.1868 68.1047 43.1224 67.9091 43.0814 67.6885C43.0404 67.468 43.0228 67.2123 43.0287 66.9315C43.0287 66.6508 43.058 66.4202 43.1048 66.2397C43.1517 66.0592 43.2161 65.9238 43.304 65.8386C43.3918 65.7534 43.5031 65.7083 43.6378 65.7133C43.7725 65.7133 43.9306 65.7584 44.1122 65.8486C44.282 65.9288 44.4343 66.0291 44.5632 66.1544C44.692 66.2798 44.8033 66.4252 44.8912 66.5956C44.979 66.7661 45.0434 66.9666 45.0844 67.1922C45.1254 67.4178 45.143 67.6735 45.1371 67.9543C45.1371 68.235 45.1079 68.4656 45.061 68.6461V68.6361ZM44.5807 66.6658C44.4812 66.4101 44.323 66.2347 44.1063 66.1294C43.8721 66.0191 43.7081 66.0542 43.6085 66.2397C43.5089 66.4202 43.4562 66.721 43.4504 67.1371C43.4445 67.5933 43.4855 67.9492 43.5792 68.1999C43.6729 68.4556 43.8311 68.6311 44.0478 68.7363C44.2703 68.8466 44.4343 68.8115 44.5456 68.6361C44.651 68.4606 44.7096 68.1598 44.7155 67.7387C44.7272 67.2774 44.6803 66.9165 44.5807 66.6658Z" fill="#58595B"/>
<path d="M41.3595 66.8401C41.3185 67.0206 41.2541 67.1509 41.1662 67.2362C41.0784 67.3214 40.9729 67.3665 40.8382 67.3615C40.7094 67.3615 40.5513 67.3164 40.3755 67.2261C40.2116 67.1459 40.071 67.0457 39.9421 66.9253C39.8191 66.805 39.7137 66.6596 39.6317 66.4942C39.5497 66.3287 39.4853 66.1332 39.4443 65.9176C39.4033 65.7021 39.3857 65.4514 39.3916 65.1706C39.3916 64.8949 39.4209 64.6643 39.4619 64.4838C39.5029 64.3033 39.5673 64.173 39.6552 64.0827C39.743 63.9975 39.8484 63.9524 39.9773 63.9574C40.1061 63.9574 40.2584 64.0025 40.4341 64.0827C40.5981 64.163 40.7445 64.2582 40.8734 64.3785C41.0022 64.4989 41.1077 64.6442 41.1955 64.8097C41.2834 64.9801 41.3478 65.1757 41.3888 65.3962C41.4298 65.6168 41.4474 65.8675 41.4415 66.1483C41.4415 66.424 41.4122 66.6496 41.3712 66.8301L41.3595 66.8401ZM40.8851 64.8999C40.7914 64.6493 40.6391 64.4738 40.4283 64.3735C40.2057 64.2682 40.0417 64.3033 39.948 64.4838C39.8543 64.6643 39.8016 64.9601 39.7957 65.3712C39.7899 65.8224 39.8309 66.1683 39.9246 66.419C40.0183 66.6697 40.1706 66.8451 40.3755 66.9454C40.5923 67.0507 40.7504 67.0156 40.8558 66.8401C40.9554 66.6646 41.0139 66.3688 41.0198 65.9578C41.0257 65.5015 40.9847 65.1506 40.8851 64.8999Z" fill="#58595B"/>
<path d="M37.7692 65.1061C37.7282 65.2816 37.6638 65.4119 37.5818 65.5022C37.4998 65.5874 37.3943 65.6325 37.2655 65.6275C37.1366 65.6275 36.9902 65.5824 36.8145 65.4972C36.6564 65.422 36.5158 65.3217 36.3987 65.2064C36.2757 65.0911 36.1761 64.9507 36.0941 64.7853C36.0121 64.6198 35.9477 64.4293 35.9126 64.2188C35.8716 64.0032 35.854 63.7575 35.854 63.4818C35.854 63.2111 35.8774 62.9855 35.9184 62.805C35.9594 62.6245 36.018 62.4941 36.1 62.4089C36.182 62.3237 36.2874 62.2786 36.4104 62.2836C36.5334 62.2836 36.6857 62.3237 36.8555 62.4039C37.0137 62.4791 37.1542 62.5744 37.2772 62.6947C37.4002 62.815 37.5056 62.9554 37.5876 63.1208C37.6696 63.2863 37.734 63.4768 37.775 63.6974C37.816 63.9179 37.8336 64.1636 37.8278 64.4393C37.8278 64.7101 37.8043 64.9357 37.7633 65.1111L37.7692 65.1061ZM37.3065 63.196C37.2128 62.9504 37.0664 62.7799 36.8614 62.6796C36.6447 62.5744 36.4865 62.6145 36.3987 62.7899C36.305 62.9704 36.2581 63.2612 36.2523 63.6623C36.2523 64.1085 36.2874 64.4494 36.3811 64.695C36.469 64.9407 36.6213 65.1111 36.8204 65.2114C37.0312 65.3117 37.1835 65.2766 37.2831 65.1061C37.3826 64.9307 37.4295 64.6399 37.4353 64.2338C37.4353 63.7826 37.3943 63.4367 37.3065 63.191V63.196Z" fill="#58595B"/>
<path d="M35.3971 63.9535C35.3561 64.1289 35.2976 64.2593 35.2156 64.3445C35.1336 64.4297 35.034 64.4749 34.911 64.4698C34.788 64.4698 34.6416 64.4297 34.4718 64.3445C34.3195 64.2693 34.1789 64.174 34.0618 64.0587C33.9446 63.9434 33.8451 63.8031 33.7631 63.6426C33.6811 63.4822 33.6225 63.2917 33.5815 63.0811C33.5405 62.8706 33.5229 62.6249 33.5229 62.3542C33.5229 62.0835 33.5464 61.8629 33.5874 61.6824C33.6284 61.5069 33.6869 61.3766 33.7689 61.2914C33.8509 61.2061 33.9505 61.166 34.0735 61.166C34.1965 61.166 34.3429 61.2061 34.5069 61.2863C34.665 61.3615 34.7997 61.4568 34.9227 61.5721C35.0457 61.6874 35.1453 61.8278 35.2273 61.9932C35.3093 62.1587 35.3679 62.3442 35.4089 62.5648C35.4498 62.7803 35.4674 63.026 35.4674 63.2967C35.4674 63.5674 35.444 63.788 35.403 63.9635L35.3971 63.9535ZM34.9403 62.0634C34.8466 61.8228 34.7002 61.6523 34.501 61.5571C34.2902 61.4568 34.1379 61.4919 34.0442 61.6724C33.9564 61.8478 33.9095 62.1386 33.9036 62.5397C33.9036 62.9809 33.9446 63.3218 34.0325 63.5624C34.1203 63.8031 34.2668 63.9735 34.4659 64.0738C34.6709 64.174 34.8232 64.139 34.9169 63.9685C35.0106 63.798 35.0633 63.5073 35.0633 63.1012C35.0633 62.655 35.0223 62.3141 34.9344 62.0684L34.9403 62.0634Z" fill="#58595B"/>
<path d="M33.0721 62.8307C33.0311 63.0062 32.9725 63.1366 32.8964 63.2218C32.8144 63.307 32.7148 63.3471 32.5977 63.3471C32.4747 63.3471 32.3341 63.307 32.1701 63.2268C32.0178 63.1516 31.8831 63.0563 31.766 62.946C31.6489 62.8307 31.5552 62.6954 31.4732 62.5349C31.3912 62.3745 31.3326 62.189 31.2916 61.9785C31.2506 61.7679 31.233 61.5273 31.233 61.2565C31.233 60.9908 31.2565 60.7652 31.2916 60.5898C31.3267 60.4143 31.3853 60.2839 31.4673 60.1987C31.5434 60.1135 31.643 60.0734 31.766 60.0684C31.889 60.0684 32.0296 60.1085 32.1877 60.1837C32.34 60.2539 32.4747 60.3491 32.5977 60.4644C32.7148 60.5797 32.8144 60.7151 32.8964 60.8755C32.9784 61.0359 33.0369 61.2265 33.0779 61.437C33.1189 61.6526 33.1365 61.8932 33.1365 62.164C33.1365 62.4297 33.1131 62.6503 33.0779 62.8257L33.0721 62.8307ZM32.6211 60.9607C32.5332 60.7201 32.3868 60.5547 32.1936 60.4594C31.9827 60.3591 31.8363 60.3992 31.7484 60.5747C31.6606 60.7502 31.6196 61.0359 31.6137 61.432C31.6137 61.8682 31.6547 62.2041 31.7426 62.4447C31.8304 62.6853 31.971 62.8508 32.1643 62.946C32.3693 63.0463 32.5157 63.0062 32.6094 62.8358C32.7031 62.6653 32.75 62.3795 32.7558 61.9785C32.7558 61.5373 32.7148 61.1964 32.627 60.9557L32.6211 60.9607Z" fill="#58595B"/>
<path d="M30.7938 61.7273C30.7586 61.8977 30.7001 62.0281 30.6239 62.1133C30.5478 62.1985 30.4482 62.2386 30.3311 62.2437C30.2139 62.2437 30.0734 62.2036 29.9094 62.1233C29.763 62.0481 29.6283 61.9579 29.517 61.8476C29.4057 61.7373 29.3061 61.6019 29.23 61.4415C29.1539 61.2811 29.0953 61.1006 29.0543 60.89C29.0133 60.6795 28.9957 60.4439 28.9957 60.1731C28.9957 59.9074 29.0133 59.6868 29.0543 59.5164C29.0894 59.3409 29.148 59.2156 29.2241 59.1303C29.3003 59.0451 29.3998 59.005 29.517 59C29.6341 59 29.7747 59.0351 29.9328 59.1103C30.0851 59.1805 30.2139 59.2707 30.3311 59.386C30.4482 59.4963 30.5478 59.6367 30.6239 59.7921C30.7059 59.9525 30.7645 60.138 30.7996 60.3486C30.8406 60.5592 30.8582 60.7998 30.8582 61.0655C30.8582 61.3312 30.8348 61.5468 30.7996 61.7223L30.7938 61.7273ZM30.3487 59.8773C30.2608 59.6417 30.1202 59.4763 29.927 59.386C29.722 59.2908 29.5756 59.3259 29.4936 59.5013C29.4116 59.6768 29.3647 59.9626 29.3647 60.3536C29.3647 60.7848 29.4057 61.1207 29.4936 61.3563C29.5814 61.5919 29.7161 61.7574 29.9094 61.8526C30.1085 61.9479 30.2491 61.9128 30.3428 61.7423C30.4306 61.5719 30.4775 61.2861 30.4834 60.89C30.4834 60.4539 30.4424 60.118 30.3545 59.8773H30.3487Z" fill="#58595B"/>
<path d="M27.5197 60.1423C27.4846 60.3127 27.426 60.438 27.3558 60.5233C27.2796 60.6085 27.1859 60.6486 27.0746 60.6536C26.9575 60.6536 26.8228 60.6185 26.6647 60.5383C26.5182 60.4681 26.3952 60.3779 26.284 60.2676C26.1727 60.1573 26.079 60.0269 26.0028 59.8715C25.9267 59.7161 25.8681 59.5356 25.833 59.3301C25.792 59.1245 25.7744 58.8889 25.7744 58.6232C25.7744 58.3625 25.792 58.1419 25.8271 57.9715C25.8623 57.801 25.915 57.6707 25.9911 57.5854C26.0673 57.5002 26.161 57.4601 26.2722 57.4551C26.3835 57.4551 26.5182 57.4902 26.6764 57.5604C26.8228 57.6305 26.9516 57.7208 27.0629 57.8311C27.1742 57.9414 27.2738 58.0767 27.3499 58.2322C27.426 58.3876 27.4846 58.5731 27.5256 58.7786C27.5666 58.9892 27.5842 59.2248 27.5842 59.4855C27.5842 59.7462 27.5666 59.9618 27.5315 60.1322L27.5197 60.1423ZM27.0805 58.3224C26.9926 58.0868 26.8579 57.9263 26.6705 57.8411C26.4714 57.7459 26.3308 57.786 26.2488 57.9614C26.1668 58.1369 26.1258 58.4177 26.1258 58.8037C26.1258 59.2298 26.1668 59.5607 26.2547 59.7913C26.3367 60.0269 26.4714 60.1874 26.6588 60.2776C26.8521 60.3729 26.9926 60.3328 27.0805 60.1673C27.1683 59.9969 27.2093 59.7161 27.2093 59.3251C27.2093 58.8939 27.1683 58.563 27.0805 58.3274V58.3224Z" fill="#58595B"/>
<path d="M25.3528 59.0904C25.3176 59.2609 25.2649 59.3862 25.1888 59.4714C25.1185 59.5567 25.0248 59.5968 24.9135 59.6018C24.8022 59.6018 24.6675 59.5667 24.5152 59.4915C24.3747 59.4213 24.2458 59.3311 24.1404 59.2258C24.0291 59.1155 23.9413 58.9852 23.8651 58.8347C23.789 58.6793 23.7304 58.5039 23.6953 58.2983C23.6543 58.0928 23.6367 57.8622 23.6367 57.6015C23.6367 57.3408 23.6543 57.1252 23.6894 56.9547C23.7246 56.7843 23.7773 56.6589 23.8476 56.5737C23.9178 56.4885 24.0116 56.4484 24.1228 56.4434C24.2341 56.4434 24.3688 56.4734 24.5152 56.5486C24.6558 56.6138 24.7847 56.7041 24.8959 56.8144C25.0072 56.9246 25.1009 57.055 25.1771 57.2104C25.2532 57.3658 25.3118 57.5463 25.3469 57.7519C25.3879 57.9574 25.4055 58.193 25.4055 58.4537C25.4055 58.7144 25.3879 58.925 25.3528 59.0954V59.0904ZM24.9194 57.2856C24.8315 57.055 24.7027 56.8946 24.5152 56.8093C24.322 56.7191 24.1814 56.7542 24.1053 56.9297C24.0233 57.1001 23.9881 57.3809 23.9881 57.7669C23.9881 58.188 24.0291 58.5139 24.117 58.7445C24.199 58.9751 24.3337 59.1356 24.5152 59.2258C24.7027 59.316 24.8432 59.2809 24.9252 59.1105C25.0131 58.945 25.0541 58.6643 25.0541 58.2732C25.0541 57.8471 25.0131 57.5162 24.9252 57.2856H24.9194Z" fill="#58595B"/>
</g>
<defs>
<linearGradient id="paint0_linear_1151_178173" x1="70.7365" y1="53.212" x2="86.5655" y2="14.0373" gradientUnits="userSpaceOnUse">
<stop offset="0.3" stop-color="#BE1E2D" stop-opacity="0"/>
<stop offset="1" stop-color="#BE1E2D"/>
</linearGradient>
<clipPath id="clip0_1151_178173">
<rect width="164.024" height="100.459" fill="white" transform="translate(0.487915 0.769531)"/>
</clipPath>
</defs>
</svg>
