<svg width="17" height="22" viewBox="0 0 17 22" fill="none" xmlns="http://www.w3.org/2000/svg">
<path d="M16 0.5H1C0.585156 0.5 0.25 0.835156 0.25 1.25V20.75C0.25 21.1648 0.585156 21.5 1 21.5H16C16.4148 21.5 16.75 21.1648 16.75 20.75V1.25C16.75 0.835156 16.4148 0.5 16 0.5ZM15.0625 19.8125H1.9375V15.1016H4.23203C4.50391 15.8703 4.98203 16.5617 5.61719 17.0867C6.42578 17.7547 7.45 18.125 8.5 18.125C9.55 18.125 10.5742 17.757 11.3828 17.0867C12.018 16.5617 12.4961 15.8703 12.768 15.1016H15.0625V13.625H11.5844L11.4625 14.2039C11.1813 15.6055 9.93437 16.625 8.5 16.625C7.06563 16.625 5.81875 15.6055 5.53516 14.2039L5.41328 13.625H1.9375V2.1875H15.0625V19.8125ZM4 6.99219H13C13.1031 6.99219 13.1875 6.90781 13.1875 6.80469V5.67969C13.1875 5.57656 13.1031 5.49219 13 5.49219H4C3.89687 5.49219 3.8125 5.57656 3.8125 5.67969V6.80469C3.8125 6.90781 3.89687 6.99219 4 6.99219ZM4 10.7422H13C13.1031 10.7422 13.1875 10.6578 13.1875 10.5547V9.42969C13.1875 9.32656 13.1031 9.24219 13 9.24219H4C3.89687 9.24219 3.8125 9.32656 3.8125 9.42969V10.5547C3.8125 10.6578 3.89687 10.7422 4 10.7422Z" fill="#434343"/>
</svg>
